<svg xmlns="http://www.w3.org/2000/svg" xmlns:xlink="http://www.w3.org/1999/xlink" version="1.1" id="Layer_1" x="0px" y="0px" viewBox="0 0 642 298" enable-background="new 0 0 642 298" xml:space="preserve">
<ellipse fill="#003263" cx="320.6" cy="149" rx="306.3" ry="125.2" style="shape-rendering:geometricPrecision;" />
<path fill="#D2AC67" d="M138.2 149c0-48.2 63.6-89.9 155.4-106.7c-136.9 6.7-242.9 53-242.9 109.2c0 36.1 36.6 68.3 105 88.4 c46.1 13.5 122.5 24.9 180.2 21.5C221.9 251.1 138.2 204.3 138.2 149z" style="shape-rendering:geometricPrecision;" />
<path fill="#FFFFFF" d="M355.2 261c0.8 0 1.6-0.1 2.3-0.1c-0.8 0-1.6-0.1-2.3-0.1L355.2 261z" style="shape-rendering:geometricPrecision;" />
<path fill="#FFFFFF" d="M355.2 261C355.2 261 355.2 261 355.2 261l-0.1 1.8c0 0 0 0 0 0c0 0 0 0 0.1 0L355.2 261z" style="shape-rendering:geometricPrecision;" />
<path fill="#FFFFFF" d="M355.2 37.3l0-2c0 0 0 0-0.1 0c0 0 0 0 0 0L355.2 37.3z" style="shape-rendering:geometricPrecision;" />
<polygon fill="#FFFFFF" points="355.2,261 355.2,261 355.2,260.8" style="shape-rendering:geometricPrecision;" />
<path fill="#D0AB68" d="M238 216.6L238 216.6l-0.6 0C237.7 216.6 238 216.6 238 216.6z" style="shape-rendering:geometricPrecision;" />
<path fill="#D0AB68" d="M235.5 216.6l1.9 0c-0.4 0-1.1-0.1-1.9-0.1C235.5 216.6 235.5 216.6 235.5 216.6z" style="shape-rendering:geometricPrecision;" />
<path fill="#023364" d="M127.9 200.8c0 0 9.5-68.8 14.6-103.8c-1.5 0-3.3 0-4.3 0l-14 100h-9.4l-2.8 19h3.9c0.1 0 0.2 0 0.3 0 l2.3-15.3L127.9 200.8z" style="shape-rendering:geometricPrecision;" />
<path fill="#D0AB68" d="M237.4 82.2C237.4 82.2 237.4 82.2 237.4 82.2L237.4 82.2c-0.2-0.5-0.6-1-1.2-1.5c-0.1-0.1-0.2-0.2-0.2-0.2 c-0.1-0.1-0.2-0.2-0.3-0.2c-0.4-0.3-0.9-0.7-1.5-1c-0.4-0.2-0.8-0.5-1.3-0.7c-2.7-1.2-6.8-2.2-13.2-2.2c-12.5-0.2-33.9-0.2-52-0.1 c-2.2 0-4.3 0-6.3 0c-3.1 0-6 0-8.7 0c-10 0-16.8 0.1-16.8 0.1L133.4 93h5.4l-0.6 4l0 0h4.8c-5.1 35-15.1 103.1-15.1 103.1l-9.2 0 l-2.4 15.9h50.6l2.2-15h-2.3l0.7-5H163l6-41h34.8c0.1 0 0.3 0 0.4 0c12.7-0.1 22.2-5.9 25.2-14.2c0.3-0.9 0.6-1.8 0.7-2.7l2.9-18.4 c0 0 0-0.1 0-0.1v0c0-0.7 0.2-1.3 0.3-2l4.5-28.6C238.1 86.5 238 84.2 237.4 82.2z M201.5 102.8c-1.5 10.3-2.8 20.7-4.3 31 c-0.5 3.2-2.6 5-5.9 5.1c-4.8 0.1-9.6 0-14.7 0c0.2-1.8 5.9-41.8 5.9-41.8s11.3 0 14.6 0C200.4 97.1 202 99.6 201.5 102.8z" style="shape-rendering:geometricPrecision;" />
<path fill="#D0AB68" d="M290.2 196h-4.7L300 93h10.6c0 0 0 0 0.1 0l2.3-17.3c0 0 0 0-0.1 0c0 0.1 0 0.3-0.1 0.3 c-18.1 0-55.1 0-55.1 0l-2.4 17h4.9l-0.6 4h4.3l-14.6 104h-9.2l-2.1 15h55.2l2.1-15h-5.9C289.5 201 289.8 199.2 290.2 196z" style="shape-rendering:geometricPrecision;" />
<path fill="#D0AB68" d="M435.8 201h-2.9c0 0-0.3-1.8-0.7-5h-4.7L410.7 76h-40.2c-0.1 0-0.2 0.3-0.3 0.4L324.5 201h-13.3l-2.1 15 h41.8l2.1-15h-3.3l1.7-5h-6.6l5.9-16H384v5c0 0 0 0 0 0h4.2l-0.1 16h-8.9l-2.1 15h56.4L435.8 201z M362 167l22.5-64.8l2.8 64.8H362z " style="shape-rendering:geometricPrecision;" />
<path fill="#D0AB68" d="M576.8 201h-2.7c0 0-0.3-1.8-0.7-5h-4.9L551.7 76h-40c-0.1 0-0.2 0.3-0.3 0.4L465.7 201h-13.3l-2.1 15h41.6 l2.1-15h-3.6l1.4-5h-6l5.9-16H525v5c0 0 0 0 0 0h4.5l-0.1 16h-8.9l-2.1 15h56.2L576.8 201z M503.2 167l22.5-64.8l2.8 64.8H503.2z" style="shape-rendering:geometricPrecision;" />
<path fill="#FFFFFF" d="M355.2 261c-9 0.3-18.1 0.5-27.3 0.5c-0.7 0-1.4 0-2.1 0c-0.8 0-1.5 0-2.3 0c-83.1 0-157.8-14.9-208.6-38.5 h-4.6c5.1 2.5 10.5 4.9 16.2 7.2c52.6 21.5 122.6 33.3 197 33.3c10.4 0 21.1-0.2 31.6-0.7c0 0 0 0 0 0L355.2 261z" style="shape-rendering:geometricPrecision;" />
<path fill="#FFFFFF" d="M46.4 149c0-30.6 30.2-58.3 79-78.6l0.3-2.3C73.3 89.7 44.4 118.4 44.4 149c0 26.2 21.1 50.9 60 71l0.3-2.1 C68.2 198.9 46.4 175 46.4 149z" style="shape-rendering:geometricPrecision;" />
<path fill="#FFFFFF" d="M323.6 36.5c4.1 0 8.2 0 12.3 0.1c-14.6 1.3-28.8 3.3-42.3 5.7c5.3-0.3 10.7-0.5 16.1-0.6 c14.7-2.2 30-3.7 45.6-4.5l-0.1-2c0 0 0 0 0 0c-10.6-0.5-21.2-0.7-31.6-0.7c-71.1 0-138 10.8-189.8 30.5h5.7 C188.5 47.3 253 36.5 323.6 36.5z" style="shape-rendering:geometricPrecision;" />
<path fill="#FFFFFF" d="M335.9 261.4c-3.4 0.1-6.7 0.1-10.1 0.1c0.7 0 1.4 0 2.1 0c9.2 0 18.3-0.2 27.3-0.5l0-0.2 c-59-3.1-113.4-16.2-153.2-36.8c-10.1-5.2-19.1-10.9-26.9-16.8l-0.3 2.3C209.9 235.9 267.4 255.2 335.9 261.4z" style="shape-rendering:geometricPrecision;" />
<path fill="#FFFFFF" d="M218 65c1.2 0 2.3 0 3.4 0.1c25.7-10.6 55.7-18.6 88.3-23.4c-5.4 0.1-10.8 0.3-16.1 0.6 c-28.9 5.3-54.9 13-77.1 22.6H218z" style="shape-rendering:geometricPrecision;" />
<path fill="#FFFFFF" d="M627.7 149c0-30.3-24.8-58.7-69.9-80.2l0.3 2.4c41.8 20.2 67.6 47.6 67.6 77.8c0 23.9-16.2 46.1-43.7 64.3 l-0.4 2.7C611.5 196.7 627.7 173.5 627.7 149z" style="shape-rendering:geometricPrecision;" />
<path fill="#FFFFFF" d="M355.2 37.3c9.2-0.5 18.6-0.7 27.7-0.7c61.8 0 118.3 10.8 161.2 28.5h5.2c-45.4-19.7-104.1-30.5-166.4-30.5 c-9.1 0-18.5 0.2-27.7 0.7c0 0 0 0 0.1 0L355.2 37.3z" style="shape-rendering:geometricPrecision;" />
<path fill="#FFFFFF" d="M382.9 261.5c-8.4 0-16.9-0.2-25.4-0.6c-0.8 0-1.6 0.1-2.3 0.1l0 1.8c0 0 0 0-0.1 0 c9.3 0.5 18.6 0.7 27.7 0.7c65.3 0 126.6-11.8 172.8-33.3c5-2.3 9.7-4.7 14.2-7.2h-4.2C521.1 246.6 455.7 261.5 382.9 261.5z" style="shape-rendering:geometricPrecision;" />
<path fill="#FFFFFF" d="M104 223h6.3c-2-1-4-1.9-5.9-2.9L104 223z" style="shape-rendering:geometricPrecision;" />
<path fill="#FFFFFF" d="M104.7 218l-0.3 2.1c1.9 1 3.9 2 5.9 2.9h4.6C111.4 221.4 108 219.7 104.7 218z" style="shape-rendering:geometricPrecision;" />
<path fill="#FFFFFF" d="M574.6 189L558.1 71.2l-0.3-2.4l-0.5-3.9h-7.9h-5.2h-41.2l-45.7 124h-23.7L416.2 65h-54.3l-45.7 124h-22.7 l12.5-89h10.7l4.8-35h-73.9l-2.7 20c-0.3-4.6-1.8-8.6-4.6-11.8c-4.1-4.7-10.7-7.5-18.9-8.1c-1.1-0.1-2.2-0.1-3.4-0.1h-1.5h-77h-5.7 h-7.6l-0.4 3.2l-0.3 2.3l-4 29.6h9.2l-12.6 90h-9.4l-4 28c3.3 1.7 6.7 3.4 10.2 5h58l1.9-13.6l0.3-2.3l2.6-18.2H171l4-27h27.5 c18.5 0 32-8.9 34.5-22.5l6.2-39.5h9l-12.6 89h-9.3l-4.7 34h131.3l4.7-34h-6.9l0.7-2H377v2h-7.6l-4.8 34h133.3l4.7-34h-6.9l0.7-2 H518v2h-7.6l-4.8 34h60h4.2h10.6l1.1-7l0.4-2.7l3.8-24.3H574.6z M237.8 89l-4.5 28.6c-0.1 0.7-0.3 1.3-0.3 2v0c0 0 0 0.1 0 0.1 l-2.9 18.4c-0.2 0.9-0.4 1.8-0.7 2.7c-2.9 8.3-12.4 14-25.2 14.2c-1.1 0-35.2 0-35.2 0l-6 41h4.5h2.2l-0.7 5l-0.1 1l-0.3 2.3 l-1.7 11.6H112l2.8-19h9.4l14-100l0 0l0.6-4h-0.5h-8.8l2.8-21h69.4h4.5H218c3.8 0 7.2 0.5 10.1 1.5c1.3 0.4 2.4 1 3.5 1.6 c0 0 0 0 0 0c0.5 0.3 1 0.6 1.5 1c0.5 0.3 0.9 0.7 1.3 1.1c0.2 0.2 0.5 0.5 0.7 0.7c0.8 0.9 1.5 2 1.9 3.1c0.1 0.2 0.2 0.4 0.2 0.6 c0.1 0.2 0.1 0.4 0.2 0.6l0 0c0 0 0 0 0 0C238 84.2 238.1 86.5 237.8 89z M295.4 201l-2.1 15H238h-4.4l2.8-20h9.3l14-99l0.6-4h-4.9 H251l2.8-21h59.8l-0.5 3.7L310.6 93l0 0h-0.1H300l-14.5 103h4.7h5.8L295.4 201z M435.8 201l-2.3 15h-56.4h-4.4l2.8-20h8.5v-11 c0 0 0 0 0 0c0 0 0 0 0 0v-5h-33.4l-5.9 16h6.6h2.3l-0.7 5l-2.1 15h-41.8h-4.5l2.8-20h13.7l45.7-124h43.3l0.6 4l16.8 120h4.7h4.4 L435.8 201z M518.3 216h-4.6l2.8-20h8.5v-11c0 0 0 0 0 0c0 0 0 0 0 0v-5h-33.4l-5.9 16h6h2.9l-0.7 5l-2.1 15h-41.6h-4.7l2.8-20h13.7 l45.7-124h43.3l0.6 4l16.8 120h4.9h4.2l-0.8 5l-2.3 15H518.3z" style="shape-rendering:geometricPrecision;" />
<path fill="#023364" d="M219.6 76.3c12.9 0 16.7 4 17.7 5.9c-0.5-1.6-1.3-3.1-2.4-4.3c-3.3-3.8-9.4-5.9-17-5.9h-85.7l-2.8 21h3.8 l2.5-16.8C135.9 76.2 195.2 76 219.6 76.3z" style="shape-rendering:geometricPrecision;" />
<g>
	<path fill="#FFFFFF" d="M602.4 111.1c0 2.3-0.4 4.4-1.2 6.3c-0.8 1.9-1.9 3.5-3.3 4.8c-1.4 1.3-3 2.4-4.8 3.1 c-1.8 0.7-3.7 1.1-5.7 1.1c-2.2 0-4.2-0.4-6.1-1.2c-1.8-0.8-3.4-1.9-4.8-3.2c-1.3-1.4-2.4-3-3.1-4.9c-0.8-1.9-1.1-3.9-1.1-6.1 c0-2.3 0.4-4.4 1.2-6.3c0.8-1.9 1.9-3.5 3.3-4.8c1.4-1.3 3-2.4 4.8-3.1c1.8-0.7 3.8-1.1 5.8-1.1c2 0 3.9 0.4 5.7 1.1 c1.8 0.7 3.4 1.8 4.8 3.1c1.4 1.3 2.5 3 3.3 4.8C602 106.7 602.4 108.8 602.4 111.1z M599.1 111.1c0-1.9-0.3-3.6-0.9-5.1 c-0.6-1.6-1.4-2.9-2.5-4c-1.1-1.1-2.3-2-3.7-2.6s-3-0.9-4.6-0.9c-1.7 0-3.2 0.3-4.7 0.9c-1.4 0.6-2.7 1.5-3.8 2.6 c-1.1 1.1-1.9 2.5-2.5 4c-0.6 1.6-0.9 3.3-0.9 5.1c0 1.8 0.3 3.4 0.8 4.9c0.5 1.5 1.3 2.9 2.4 4c1 1.1 2.3 2.1 3.7 2.7 c1.5 0.7 3.1 1 4.9 1c1.6 0 3.2-0.3 4.6-0.9s2.7-1.5 3.7-2.6c1.1-1.1 1.9-2.5 2.5-4C598.8 114.7 599.1 113 599.1 111.1z M584.3 119.9h-2.8v-17h6.4c2.1 0 3.6 0.4 4.6 1.1c1 0.8 1.6 2 1.6 3.7c0 1.5-0.4 2.7-1.3 3.4c-0.8 0.7-1.9 1.1-3.2 1.3l4.8 7.5 h-3.2l-4.4-7.3h-2.6V119.9z M587.5 110.2c0.5 0 1 0 1.5-0.1s0.9-0.2 1.3-0.3c0.4-0.2 0.6-0.5 0.9-0.8c0.2-0.3 0.3-0.8 0.3-1.5 c0-0.5-0.1-0.9-0.3-1.2c-0.2-0.3-0.5-0.5-0.9-0.7c-0.4-0.2-0.8-0.3-1.2-0.3s-0.9-0.1-1.3-0.1h-3.4v5H587.5z" style="shape-rendering:geometricPrecision;" />
</g>
<path fill="#FFFFFF" d="M185.6 134.1h-13.8l5.6-41.5h13.1c1.9 0 3.6 0.7 4.8 2.1c1 1.1 2 3.1 1.6 6.5l-3.5 26.8 C193 130.8 191.4 134.1 185.6 134.1z M179.9 127.1h5.8c0.4 0 0.6 0 0.8 0c0 0 0 0 0 0l3.5-26.8c0-0.3 0-0.5 0-0.7l-6.4 0 L179.9 127.1z" style="shape-rendering:geometricPrecision;" />
<path fill="#FFFFFF" d="M383.9 161.5h-26.3l22.8-62.9L383.9 161.5z M367.6 154.5h8.9l-1.2-21.3L367.6 154.5z" style="shape-rendering:geometricPrecision;" />
<path fill="#FFFFFF" d="M525.1 161.5h-26.3l22.8-62.9L525.1 161.5z M508.8 154.5h8.9l-1.2-21.3L508.8 154.5z" style="shape-rendering:geometricPrecision;" />
</svg>
